<?xml version="1.0" encoding="UTF-8"?>
<svg width="148px" height="313px" viewBox="0 0 148 313" version="1.1" xmlns="http://www.w3.org/2000/svg" xmlns:xlink="http://www.w3.org/1999/xlink">
    <!-- Generator: Sketch 52.6 (67491) - http://www.bohemiancoding.com/sketch -->
    <title>logo_FE1</title>
    <desc>Created with Sketch.</desc>
    <defs>
        <polygon id="path-1" points="0.686955414 0.519529412 117.956408 0.519529412 117.956408 127.954824 0.686955414 127.954824"></polygon>
    </defs>
    <g id="Page-1" stroke="none" stroke-width="1" fill="none" fill-rule="evenodd">
        <g id="." transform="translate(-115.000000, -113.000000)">
            <g id="logo_FE1" transform="translate(115.000000, 113.000000)">
                <g id="Group-3" transform="translate(31.000000, 185.000000)">
                    <mask id="mask-2" fill="white">
                        <use xlink:href="#path-1"></use>
                    </mask>
                    <g id="Clip-2"></g>
                    <path d="M14.7917551,112.824471 C4.51147488,102.707953 -0.624155697,88.3636706 -0.624155697,69.7953882 L-0.624155697,0.519529412 L34.663857,0.519529412 L34.663857,68.7232 C34.663857,88.7205647 42.5645959,98.7188706 58.3675768,98.7188706 C74.0510545,98.7188706 81.8939207,88.7205647 81.8939207,68.7232 L81.8939207,0.519529412 L116.645297,0.519529412 L116.645297,69.7953882 C116.645297,88.3636706 111.50666,102.707953 101.229386,112.824471 C90.9528634,122.942494 76.5455895,128 58.0105704,128 C39.4755513,128 25.0660226,122.942494 14.7917551,112.824471" id="Fill-1" fill="#FFFFFF" mask="url(#mask-2)"></path>
                </g>
                <path d="M101.695831,32.1566109 C98.0436096,28.9932647 92.6219238,27.4119621 85.435246,27.4119621 L65.9942464,27.4119621 L65.9942464,63.43365 L85.435246,63.43365 C92.6219238,63.43365 98.0436096,61.8819876 101.695831,58.7771807 C105.348053,55.6745968 107.174909,51.2515438 107.174909,45.5095035 C107.174909,39.7719093 105.348053,35.3184751 101.695831,32.1566109 Z M85.0826948,90.3180172 L65.9942464,90.3180172 L65.9942464,123 L31,123 L31,0 L87.5557706,0 C98.750948,0 108.471075,1.84510004 116.720624,5.5345591 C124.967191,9.22550018 131.328765,14.4970028 135.807582,21.3498081 C140.284907,28.2033544 142.526179,36.2573272 142.526179,45.5095035 C142.526179,54.413408 140.433232,62.1761662 136.24883,68.7918502 C132.065918,75.4119802 126.087455,80.5953034 118.312695,84.3433017 L145,123 L107.528951,123 L85.0826948,90.3180172 Z" id="Fill-4" fill="#FFFFFF"></path>
                <polygon id="Fill-5" fill="#FFFFFF" points="31 193 66 193 66 116 31 116"></polygon>
                <path d="M10.3723817,303.328147 C9.99379364,302.683593 9.46470132,302.178321 8.78355314,301.81011 C8.10473235,301.441899 7.34212568,301.258905 6.4996121,301.258905 C5.65787432,301.258905 4.89526765,301.441899 4.21644686,301.81011 C3.53529868,302.178321 3.00698216,302.683593 2.62761831,303.328147 C2.24825446,303.971961 2.05896043,304.696529 2.05896043,305.50037 C2.05896043,306.304212 2.24825446,307.028039 2.62761831,307.671853 C3.00698216,308.316407 3.53529868,308.821679 4.21644686,309.18989 C4.89526765,309.558101 5.65787432,309.741095 6.4996121,309.741095 C7.34212568,309.741095 8.10473235,309.558101 8.78355314,309.18989 C9.46470132,308.821679 9.99379364,308.316407 10.3723817,307.671853 C10.7517455,307.028039 10.9418154,306.304212 10.9418154,305.50037 C10.9418154,304.696529 10.7517455,303.971961 10.3723817,303.328147 Z M12.1598138,308.828347 C11.6004655,309.817405 10.8246703,310.592352 9.83010085,311.155411 C8.8386346,311.719952 7.72769589,312 6.4996121,312 C5.27230411,312 4.1613654,311.719952 3.16757176,311.155411 C2.17532971,310.592352 1.39953452,309.817405 0.840186191,308.828347 C0.280062064,307.838548 0,306.729469 0,305.50037 C0,304.271271 0.280062064,303.161452 0.840186191,302.172394 C1.39953452,301.183336 2.17300233,300.408389 3.15826222,299.844589 C4.1458495,299.280048 5.25911559,299 6.4996121,299 C7.73855702,299 8.8541505,299.280048 9.8394104,299.844589 C10.8269977,300.408389 11.6004655,301.183336 12.1598138,302.172394 C12.7199379,303.161452 13,304.271271 13,305.50037 C13,306.729469 12.7199379,307.838548 12.1598138,308.828347 Z" id="Fill-6" fill="#FFFFFF"></path>
                <path d="M11.2859247,291.277669 C11.2859247,290.34763 11.1209257,289.641919 10.7879811,289.158938 C10.4572463,288.675956 9.97771776,288.433268 9.34792217,288.433268 C8.11337548,288.433268 7.49610214,289.380869 7.49610214,291.277669 L7.49610214,294.621017 L11.2859247,294.621017 L11.2859247,291.277669 Z M1,297 L1,286.873358 L2.83340495,286.873358 L2.83340495,294.621017 L5.78202689,294.621017 L5.78202689,290.776326 C5.78202689,289.215618 6.08329753,288.02932 6.68215579,287.217432 C7.28248726,286.405545 8.14873243,286 9.27941808,286 C10.4682954,286 11.3868394,286.447057 12.031367,287.337978 C12.6781045,288.228899 13,289.499819 13,291.148342 L13,297 L1,297 Z" id="Fill-7" fill="#FFFFFF"></path>
                <path d="M7.03351544,275.283787 C6.62322755,274.733666 6.03320852,274.458605 5.26714137,274.458605 C4.50328402,274.458605 3.91326499,274.733666 3.5029771,275.283787 C3.09047941,275.836328 2.88570376,276.642957 2.88570376,277.7069 L2.88570376,280.559947 L7.65078878,280.559947 L7.65078878,277.7069 C7.65078878,276.642957 7.44527653,275.836328 7.03351544,275.283787 Z M1.51267571,274.617511 C1.85593272,273.773777 2.34798355,273.125247 2.98809158,272.675955 C3.62819962,272.224243 4.38837395,272 5.26714137,272 C6.13780615,272 6.89282426,272.224243 7.53956172,272.675955 C8.18408937,273.125247 8.68055982,273.773777 9.02160702,274.617511 C9.36486404,275.462858 9.53649254,276.455012 9.53649254,277.593972 L9.53649254,280.559947 L13,280.559947 L13,283 L1,283 L1,277.593972 C1,276.455012 1.17162851,275.462858 1.51267571,274.617511 Z" id="Fill-8" fill="#FFFFFF"></path>
                <path d="M8.47283776,264.264153 L3.22896078,266.525759 L8.47283776,268.769701 L8.47283776,264.264153 Z M10.2230066,263.527457 L10.2230066,269.521852 L13,270.706012 L13,273 L1,267.605412 L1,265.411515 L13,260 L13,262.329314 L10.2230066,263.527457 Z" id="Fill-9" fill="#FFFFFF"></path>
                <path d="M7.41621108,249.683775 C7.95002377,249.228477 8.57731162,249 9.29498455,249 C10.0497385,249 10.7063822,249.263245 11.2641431,249.789735 C11.821904,250.317053 12.2514262,251.020695 12.5496197,251.899834 C12.8509033,252.779801 13,253.739238 13,254.778974 C13,255.678808 12.8833492,256.580298 12.6485025,257.485927 C12.4167459,258.391556 12.0652484,259.23096 11.5971001,260 L9.88982648,259.191225 C10.2614096,258.600993 10.5464702,257.94702 10.7442358,257.227649 C10.9412289,256.506623 11.0401117,255.794702 11.0401117,255.086921 C11.0401117,254.072848 10.8539339,253.229305 10.4823508,252.553808 C10.1115403,251.881623 9.6024483,251.542219 8.95507488,251.542219 C8.4042667,251.542219 7.98246969,251.786424 7.69509151,252.274007 C7.40771333,252.763245 7.26479677,253.437914 7.26479677,254.298841 L7.26479677,257.437914 L5.43005705,257.437914 L5.43005705,254.491722 C5.43005705,253.746689 5.28714048,253.160596 4.99744473,252.737583 C4.71006656,252.313742 4.321488,252.101821 3.83016401,252.101821 C3.24227478,252.101821 2.78725933,252.386589 2.4628001,252.957781 C2.1398859,253.529801 1.97765629,254.259106 1.97765629,255.145695 C1.97765629,255.75 2.0587711,256.373344 2.22100071,257.015728 C2.38400285,257.657285 2.61807701,258.259934 2.9301759,258.826159 L1.04213216,259.616722 C0.69604231,258.922185 0.434929879,258.187086 0.261112432,257.410596 C0.0880675065,256.63245 0,255.857616 0,255.086921 C0,254.085265 0.145234134,253.164735 0.432612313,252.323675 C0.719990492,251.48096 1.13019967,250.811258 1.66401236,250.309603 C2.19705253,249.809603 2.82279534,249.557119 3.54278583,249.557119 C4.16543855,249.557119 4.71006656,249.738411 5.17744236,250.09851 C5.64481816,250.458609 6.00481341,250.952815 6.2574281,251.581954 C6.49690991,250.771523 6.88317091,250.140728 7.41621108,249.683775" id="Fill-10" fill="#FFFFFF"></path>
                <path d="M10.3723817,238.327406 C9.99379364,237.682852 9.46470132,237.178321 8.78355314,236.81011 C8.10473235,236.441899 7.34212568,236.258905 6.4996121,236.258905 C5.65787432,236.258905 4.89526765,236.441899 4.21644686,236.81011 C3.53529868,237.178321 3.00698216,237.682852 2.62761831,238.327406 C2.24825446,238.971961 2.05896043,239.695048 2.05896043,240.49963 C2.05896043,241.303471 2.24825446,242.028039 2.62761831,242.671853 C3.00698216,243.315666 3.53529868,243.821679 4.21644686,244.18989 C4.89526765,244.558101 5.65787432,244.741095 6.4996121,244.741095 C7.34212568,244.741095 8.10473235,244.558101 8.78355314,244.18989 C9.46470132,243.821679 9.99379364,243.315666 10.3723817,242.671853 C10.7517455,242.028039 10.9418154,241.303471 10.9418154,240.49963 C10.9418154,239.695048 10.7517455,238.971961 10.3723817,238.327406 Z M12.1598138,243.826865 C11.6004655,244.816664 10.8246703,245.59087 9.83010085,246.155411 C8.8386346,246.719952 7.72769589,247 6.4996121,247 C5.27230411,247 4.1613654,246.719952 3.16757176,246.155411 C2.17532971,245.59087 1.39953452,244.816664 0.840186191,243.826865 C0.280062064,242.838548 0,241.728729 0,240.49963 C0,239.270531 0.280062064,238.161452 0.840186191,237.171653 C1.39953452,236.182595 2.17300233,235.407648 3.15826222,234.843107 C4.1458495,234.280048 5.25911559,234 6.4996121,234 C7.73855702,234 8.8541505,234.280048 9.8394104,234.843107 C10.8269977,235.407648 11.6004655,236.182595 12.1598138,237.171653 C12.7199379,238.161452 13,239.270531 13,240.49963 C13,241.728729 12.7199379,242.838548 12.1598138,243.826865 Z" id="Fill-11" fill="#FFFFFF"></path>
                <path d="M9.5026088,223.415773 C8.33730281,223.415773 7.7531766,224.261135 7.7531766,225.956609 L7.7531766,229.640426 L11.2859247,229.640426 L11.2859247,225.956609 C11.2859247,224.261135 10.6914861,223.415773 9.5026088,223.415773 Z M6.1252839,229.640426 L6.1252839,226.436281 C6.1252839,225.662157 5.98311951,225.073253 5.69584433,224.667986 C5.41151556,224.261135 4.98870542,224.059293 4.42815051,224.059293 C3.8675956,224.059293 3.44183905,224.261135 3.15161746,224.667986 C2.85844945,225.073253 2.71407526,225.662157 2.71407526,226.436281 L2.71407526,229.640426 L6.1252839,229.640426 Z M7.81431465,221.645895 C8.31004849,221.21609 8.93174145,221 9.67423731,221 C10.7253698,221 11.5429992,221.418723 12.1256522,222.253004 C12.7090418,223.08966 13,224.299129 13,225.882205 L13,232 L1,232 L1,226.233648 C1,224.785925 1.2681235,223.654026 1.80584372,222.844283 C2.34135412,222.032957 3.10300166,221.627689 4.0848935,221.627689 C4.71468909,221.627689 5.25682892,221.789163 5.7127862,222.116068 C6.17095329,222.442182 6.51862992,222.911564 6.75949911,223.525797 C6.96427475,222.702598 7.316371,222.0757 7.81431465,221.645895 Z" id="Fill-12" fill="#FFFFFF"></path>
                <path d="M8.47283776,211.263658 L3.22896078,213.526128 L8.47283776,215.769462 L8.47283776,211.263658 Z M10.2230066,210.527657 L10.2230066,216.523127 L13,217.705882 L13,220 L1,214.605107 L1,212.411821 L13,207 L13,209.329446 L10.2230066,210.527657 Z" id="Fill-13" fill="#FFFFFF"></path>
                <polyline id="Fill-14" fill="#FFFFFF" points="2.88570376 198 2.88570376 202.309937 13 202.309937 13 204.708427 2.88570376 204.708427 2.88570376 209 1 209 1 198 2.88570376 198"></polyline>
                <polyline id="Fill-15" fill="#FFFFFF" points="10.1312381 186 12 186 12 196 0 196 0 186.267594 1.86876189 186.267594 1.86876189 193.523732 4.98680253 193.523732 4.98680253 187.085925 6.82241729 187.085925 6.82241729 193.523732 10.1312381 193.523732 10.1312381 186"></polyline>
                <path d="M1,173 L12.8307916,173 L12.8307916,175.253638 L2.85911402,175.253638 L2.85911402,180.109431 L5.81554103,180.214515 C7.47276688,180.272727 8.81554103,180.414855 9.84749455,180.637876 C10.8794481,180.861652 11.6608569,181.217728 12.1975309,181.709885 C12.7320261,182.203553 13,182.88471 13,183.752599 C13,184.057267 12.9440813,184.474579 12.8307916,185 L10.9201162,184.843508 C10.9658678,184.690796 10.9883805,184.515404 10.9883805,184.315063 C10.9883805,183.599887 10.5795207,183.091098 9.76252723,182.792478 C8.94553377,182.493857 7.65795207,182.309393 5.90050835,182.238329 L1,182.061425 L1,173" id="Fill-16" fill="#FFFFFF"></path>
                <path d="M10.6855933,163.227045 C10.2856178,162.710685 9.70149162,162.453721 8.93542447,162.453721 C7.4857897,162.453721 6.75949911,163.447531 6.75949911,165.43353 L6.75949911,168.583567 L11.2859247,168.583567 L11.2859247,165.43353 C11.2859247,164.477819 11.0848321,163.743405 10.6855933,163.227045 Z M6.03099871,161.274282 C6.67773617,160.42395 7.63384691,160 8.90227733,160 C10.2288994,160 11.2417286,160.466102 11.9451845,161.395873 C12.6486404,162.327266 13,163.634783 13,165.320855 L13,171 L1,171 L1,168.583567 L5.06236572,168.583567 L5.06236572,164.924466 C5.06236572,163.340531 5.38426125,162.124613 6.03099871,161.274282 Z" id="Fill-17" fill="#FFFFFF"></path>
                <polyline id="Fill-18" fill="#FFFFFF" points="1 147 13 147 13 149.299392 7.85630103 149.299392 7.85630103 155.700608 13 155.700608 13 158 1 158 1 155.700608 5.95365539 155.700608 5.95365539 149.299392 1 149.299392 1 147"></polyline>
                <path d="M8.47283776,137.263658 L3.22896078,139.526864 L8.47283776,141.770198 L8.47283776,137.263658 Z M10.2230066,136.527657 L10.2230066,142.523127 L13,143.706618 L13,146 L1,140.605107 L1,138.411821 L13,133 L13,135.329446 L10.2230066,136.527657 Z" id="Fill-19" fill="#FFFFFF"></path>
                <path d="M3.51991897,128.712541 C3.94272911,129.245752 4.56000246,129.512762 5.371739,129.512762 C6.15843104,129.512762 6.76760174,129.255462 7.19704131,128.740051 C7.62574428,128.227878 7.83935916,127.48025 7.83935916,126.501214 L7.83935916,123.41199 L2.88570376,123.41199 L2.88570376,126.407356 C2.88570376,127.411475 3.09710883,128.179331 3.51991897,128.712541 Z M1,121 L13,121 L13,123.41199 L9.65803204,123.41199 L9.65803204,126.933284 L13,129.381684 L13,131.961162 L9.29783316,129.135712 C8.98845989,130.053255 8.50082868,130.758808 7.83051992,131.255609 C7.16315757,131.7516 6.35363084,132 5.40488613,132 C4.49076177,132 3.70185992,131.772637 3.03818059,131.321957 C2.37744767,130.868849 1.87066478,130.230452 1.52077834,129.400294 C1.17383832,128.572563 1,127.597573 1,126.480177 L1,121 Z" id="Fill-20" fill="#FFFFFF"></path>
                <polyline id="Fill-21" fill="#FFFFFF" points="1 102 13 102 13 104.275283 2.88570376 104.275283 2.88570376 110.724717 13 110.724717 13 113 1 113 1 102"></polyline>
                <path d="M1,88 L12.8307916,88 L12.8307916,90.2528823 L2.85911402,90.2528823 L2.85911402,95.1094311 L5.81554103,95.2145152 C7.47276688,95.2727273 8.81554103,95.4140994 9.84749455,95.6378756 C10.8794481,95.8608959 11.6608569,96.2177282 12.1975309,96.7091287 C12.7320261,97.2035532 13,97.8839539 13,98.7518428 C13,99.0572671 12.9440813,99.4738235 12.8307916,100 L10.9201162,99.8435078 C10.9658678,99.6907957 10.9883805,99.5146475 10.9883805,99.3143073 C10.9883805,98.5998866 10.5795207,98.0903421 9.76252723,97.7917218 C8.94553377,97.4931015 7.65795207,97.3086373 5.90050835,97.2375732 L1,97.0621811 L1,88" id="Fill-22" fill="#FFFFFF"></path>
                <path d="M10.3723817,76.3281473 C9.99379364,75.6835926 9.46470132,75.1783211 8.78355314,74.81011 C8.10473235,74.4418989 7.34212568,74.2589047 6.4996121,74.2589047 C5.65787432,74.2589047 4.89526765,74.4418989 4.21644686,74.81011 C3.53529868,75.1783211 3.00698216,75.6835926 2.62761831,76.3281473 C2.24825446,76.971961 2.05896043,77.6957885 2.05896043,78.5003704 C2.05896043,79.3042115 2.24825446,80.028039 2.62761831,80.6725936 C3.00698216,81.3164074 3.53529868,81.8216789 4.21644686,82.18989 C4.89526765,82.5581011 5.65787432,82.7410953 6.4996121,82.7410953 C7.34212568,82.7410953 8.10473235,82.5581011 8.78355314,82.18989 C9.46470132,81.8216789 9.99379364,81.3164074 10.3723817,80.6725936 C10.7517455,80.028039 10.9418154,79.3042115 10.9418154,78.5003704 C10.9418154,77.6957885 10.7517455,76.971961 10.3723817,76.3281473 Z M12.1598138,81.8276059 C11.6004655,82.8174047 10.8246703,83.5916111 9.83010085,84.156152 C8.8386346,84.7199521 7.72769589,85 6.4996121,85 C5.27230411,85 4.1613654,84.7199521 3.16757176,84.156152 C2.17532971,83.5916111 1.39953452,82.8174047 0.840186191,81.8276059 C0.280062064,80.8385479 0,79.7294694 0,78.5003704 C0,77.2712714 0.280062064,76.1614521 0.840186191,75.1723941 C1.39953452,74.1833362 2.17300233,73.4083889 3.15826222,72.843848 C4.1458495,72.2800479 5.25911559,72 6.4996121,72 C7.73855702,72 8.8541505,72.2800479 9.8394104,72.843848 C10.8269977,73.4083889 11.6004655,74.1833362 12.1598138,75.1723941 C12.7199379,76.1614521 13,77.2712714 13,78.5003704 C13,79.7294694 12.7199379,80.8385479 12.1598138,81.8276059 Z" id="Fill-23" fill="#FFFFFF"></path>
                <path d="M10.42333,53 L15,53 L15,55.04 L12.3666498,55.04 L12.3666498,56.9448765 L10.42333,56.9448765 L10.42333,53 Z M0,54.7164339 L12.3666498,54.7164339 L12.3666498,70 L0,70 L0,67.8234157 L10.42333,67.8234157 L10.42333,63.4381096 L0,63.4381096 L0,61.2615252 L10.42333,61.2615252 L10.42333,56.8930183 L0,56.8930183 L0,54.7164339 Z" id="Fill-24" fill="#FFFFFF"></path>
                <path d="M8.47283776,43.2636585 L3.22896078,45.5261281 L8.47283776,47.7694616 L8.47283776,43.2636585 Z M10.2230066,42.5276567 L10.2230066,48.5223914 L13,49.7058824 L13,52 L1,46.6051067 L1,44.4110853 L13,39 L13,41.3294457 L10.2230066,42.5276567 Z" id="Fill-25" fill="#FFFFFF"></path>
                <path d="M8.13537449,35.8574032 C9.20040486,36.0469432 9.96406883,36.3463301 10.42333,36.7591539 L10.42333,30.8266969 L1.94331984,30.8266969 L1.94331984,35.4065279 L4.13410931,35.4883747 C5.73507085,35.5450931 7.06958502,35.6678633 8.13537449,35.8574032 Z M10.42333,27 L15,27 L15,29.0052466 L12.3666498,29.0052466 L12.3666498,37.9782405 L15,37.9782405 L15,40 L10.42333,39.983487 L10.42333,39.4816369 C10.3868927,38.7478876 9.81300607,38.2316784 8.70015182,37.938035 C7.58729757,37.6422378 5.99544534,37.4605953 3.9207996,37.3931076 L0,37.2602861 L0,28.6871928 L10.42333,28.6871928 L10.42333,27 Z" id="Fill-26" fill="#FFFFFF"></path>
                <polyline id="Fill-27" fill="#FFFFFF" points="7.94174698 19.3483589 7.94174698 21.6927736 13 21.6927736 13 24 1 24 1 21.6927736 6.02289608 21.6927736 6.02289608 19.2755318 1 15.6504437 1 13.1634737 6.81179793 17.4726722 13 13 13 15.6504437 7.94174698 19.3483589"></polyline>
                <path d="M8.47283776,4.2636585 L3.22896078,6.52612806 L8.47283776,8.76946159 L8.47283776,4.2636585 Z M10.2230066,3.52765668 L10.2230066,9.52239144 L13,10.7058824 L13,13 L1,7.60510672 L1,5.41108532 L13,0 L13,2.32944573 L10.2230066,3.52765668 Z" id="Fill-28" fill="#FFFFFF"></path>
            </g>
        </g>
    </g>
</svg>