<?xml version="1.0" encoding="UTF-8"?>
<svg width="3546px" height="223px" viewBox="0 0 3546 223" version="1.1" xmlns="http://www.w3.org/2000/svg" xmlns:xlink="http://www.w3.org/1999/xlink">
    <!-- Generator: Sketch 52.6 (67491) - http://www.bohemiancoding.com/sketch -->
    <title>Group 4</title>
    <desc>Created with Sketch.</desc>
    <g id="Page-1" stroke="none" stroke-width="1" fill="none" fill-rule="evenodd">
        <g id="Group-4" fill="#FFFFFF" fill-rule="nonzero">
            <path d="M0.0698170383,3.08914565 C40.2220197,-5.65670678 91.8487473,6.98024467 154.95,41 C249.601879,92.029633 298.422344,97.7090545 398.95,77.711283 C499.477656,57.7135114 536.15,8.44621168 698.8,8.44621168 C791.946923,8.44621168 862.890544,51.3398763 959.44061,76.4431724 C1031.483,95.1744011 1148.4,126.91128 1238.2,77.711283 C1328,28.5112859 1411.8,0.792234752 1507.45299,28.5112859 C1568.5346,46.2119789 1652.06351,37.1703818 1758.74648,5.41152991 C1761.87522,4.4801235 1766.73024,3.70599542 1773.31155,3.08914565 L1773.5,223 L0.0698170383,223 L0.0698170383,3.08914565 Z" id="Path-7"></path>
            <path d="M1758.85689,5.36083558 C1807.81771,-4.89947681 1863.84875,6.98024467 1926.95,41 C2021.60188,92.029633 2070.42234,97.7090545 2170.95,77.711283 C2271.47766,57.7135114 2308.15,8.44621168 2470.8,8.44621168 C2563.94692,8.44621168 2634.89054,51.3398763 2731.44061,76.4431724 C2803.483,95.1744011 2920.4,126.91128 3010.2,77.711283 C3100,28.5112859 3183.8,0.792234752 3279.45299,28.5112859 C3343.22165,46.9906534 3431.90399,37.7509696 3545.5,0.792234752 L3545.5,223 L1772.06982,223 L1758.85689,5.36083558 Z" id="Path-7"></path>
        </g>
    </g>
</svg>