<?xml version="1.0" encoding="UTF-8"?>
<svg width="328px" height="1280px" viewBox="0 0 328 1280" version="1.1" xmlns="http://www.w3.org/2000/svg" xmlns:xlink="http://www.w3.org/1999/xlink">
    <!-- Generator: Sketch 52.6 (67491) - http://www.bohemiancoding.com/sketch -->
    <title>logo_FE1</title>
    <desc>Created with Sketch.</desc>
    <g id="Page-1" stroke="none" stroke-width="1" fill="none" fill-rule="evenodd">
        <g id="logo_FE1" fill="#FFFFFF">
            <path d="M203.40555,93.0711665 C192.897403,83.9154653 177.298167,79.338687 156.620708,79.338687 L100.6852,79.338687 L100.6852,183.596581 L156.620708,183.596581 C177.298167,183.596581 192.897403,179.10559 203.40555,170.11932 C213.913696,161.139483 219.169914,148.337801 219.169914,131.718563 C219.169914,115.112193 213.913696,102.222578 203.40555,93.0711665 Z M155.60635,261.408245 L100.6852,261.408245 L100.6852,356 L0,356 L0,0 L162.721866,0 C194.932552,0 222.899234,5.34028953 246.634778,16.0187239 C270.361744,26.7014477 288.66522,41.958805 301.551638,61.7929406 C314.433768,81.6292209 320.882339,104.939906 320.882339,131.718563 C320.882339,157.489213 314.860528,179.957034 302.821194,199.104867 C290.78615,218.265569 273.584957,233.267707 251.215472,244.115573 L328,356 L220.188561,356 L155.60635,261.408245 Z" id="Fill-4"></path>
            <polygon id="Fill-5" points="0 1280 101 1280 101 337 0 337"></polygon>
        </g>
    </g>
</svg>