<?xml version="1.0" encoding="UTF-8"?>
<svg width="239px" height="114px" viewBox="0 0 239 114" version="1.1" xmlns="http://www.w3.org/2000/svg" xmlns:xlink="http://www.w3.org/1999/xlink">
    <!-- Generator: Sketch 52.6 (67491) - http://www.bohemiancoding.com/sketch -->
    <title>logo_FE1</title>
    <desc>Created with Sketch.</desc>
    <defs>
        <polygon id="path-1" points="0.523949045 0.393705882 89.9667516 0.393705882 89.9667516 96.9657647 0.523949045 96.9657647"></polygon>
    </defs>
    <g id="Page-1" stroke="none" stroke-width="1" fill="none" fill-rule="evenodd">
        <g id="." transform="translate(-579.000000, -1600.000000)">
            <g id="logo_FE1" transform="translate(698.500000, 1657.500000) rotate(-270.000000) translate(-698.500000, -1657.500000) translate(641.000000, 1538.000000)">
                <g id="Group-3" transform="translate(24.378753, 141.587038)">
                    <mask id="mask-2" fill="white">
                        <use xlink:href="#path-1"></use>
                    </mask>
                    <g id="Clip-2"></g>
                    <path d="M11.2818471,85.4997941 C3.44095541,77.8333706 -0.476050955,66.9630941 -0.476050955,52.8918176 L-0.476050955,0.393705882 L26.438535,0.393705882 L26.438535,52.0793 C26.438535,67.2335529 32.4645223,74.8103941 44.5176433,74.8103941 C56.4796178,74.8103941 62.461465,67.2335529 62.461465,52.0793 L62.461465,0.393705882 L88.9667516,0.393705882 L88.9667516,52.8918176 C88.9667516,66.9630941 85.0474522,77.8333706 77.2088535,85.4997941 C69.370828,93.1673588 58.3822293,97 44.2453503,97 C30.1084713,97 19.1181529,93.1673588 11.2818471,85.4997941" id="Fill-1" fill="#FFFFFF" mask="url(#mask-2)"></path>
                </g>
                <path d="M78.3308346,25.1620088 C75.5436128,22.7444922 71.4060105,21.5360171 65.9214405,21.5360171 L51.0848882,21.5360171 L51.0848882,49.0647867 L65.9214405,49.0647867 C71.4060105,49.0647867 75.5436128,47.8789634 78.3308346,45.5061841 C81.1180564,43.1351038 82.5122361,39.7548844 82.5122361,35.3666585 C82.5122361,30.9818304 81.1180564,27.5783929 78.3308346,25.1620088 Z M65.6523883,69.6105633 L51.0848882,69.6105633 L51.0848882,94.5870379 L24.3787528,94.5870379 L24.3787528,0.58703791 L67.5397356,0.58703791 C76.0834237,0.58703791 83.5014154,1.99711436 89.7971238,4.81670096 C96.0905568,7.63742016 100.945442,11.6660482 104.363486,16.9031514 C107.780393,22.1408209 109.490837,28.2958896 109.490837,35.3666585 C109.490837,42.1712684 107.893588,48.1037828 104.700228,53.1596714 C101.508006,58.2189577 96.9454945,62.1801966 91.0121249,65.0445205 L111.378753,94.5870379 L82.782426,94.5870379 L65.6523883,69.6105633 Z" id="Fill-4" fill="#FFFFFF"></path>
                <polygon id="Fill-5" fill="#FFFFFF" points="24.3787528 147.587038 51.3787528 147.587038 51.3787528 89.5870379 24.3787528 89.5870379"></polygon>
                <path d="M8.85750797,231.416382 C8.56628639,230.920571 8.1592923,230.5319 7.63533216,230.248661 C7.11316232,229.965422 6.5265418,229.824657 5.87845444,229.824657 C5.23096384,229.824657 4.64434332,229.965422 4.12217348,230.248661 C3.59821334,230.5319 3.19181602,230.920571 2.89999767,231.416382 C2.60817933,231.911623 2.46256854,232.468984 2.46256854,233.087323 C2.46256854,233.705662 2.60817933,234.262453 2.89999767,234.757694 C3.19181602,235.253505 3.59821334,235.642176 4.12217348,235.925415 C4.64434332,236.208654 5.23096384,236.349419 5.87845444,236.349419 C6.5265418,236.349419 7.11316232,236.208654 7.63533216,235.925415 C8.1592923,235.642176 8.56628639,235.253505 8.85750797,234.757694 C9.14932631,234.262453 9.29553387,233.705662 9.29553387,233.087323 C9.29553387,232.468984 9.14932631,231.911623 8.85750797,231.416382 Z M10.2324558,235.647305 C9.8021878,236.408118 9.20542227,237.004232 8.44036886,237.437354 C7.67770251,237.871616 6.82313427,238.087038 5.87845444,238.087038 C4.93437137,238.087038 4.07980313,237.871616 3.31534648,237.437354 C2.55208337,237.004232 1.95531784,236.408118 1.52504989,235.647305 C1.09418518,234.885921 0.878752821,234.032784 0.878752821,233.087323 C0.878752821,232.141862 1.09418518,231.288155 1.52504989,230.527341 C1.95531784,229.766527 2.55029307,229.170414 3.3081853,228.736722 C4.06786782,228.302459 4.92422635,228.087038 5.87845444,228.087038 C6.83148899,228.087038 7.68963782,228.302459 8.44753005,228.736722 C9.20721257,229.170414 9.8021878,229.766527 10.2324558,230.527341 C10.6633205,231.288155 10.8787528,232.141862 10.8787528,233.087323 C10.8787528,234.032784 10.6633205,234.885921 10.2324558,235.647305 Z" id="Fill-6" fill="#FFFFFF"></path>
                <path d="M9.09319638,222.425343 C9.09319638,221.748951 8.96944707,221.235706 8.71973864,220.884447 C8.47168757,220.533188 8.11204114,220.356687 7.63969445,220.356687 C6.71378443,220.356687 6.25082943,221.045852 6.25082943,222.425343 L6.25082943,224.856869 L9.09319638,224.856869 L9.09319638,222.425343 Z M1.37875282,226.587038 L1.37875282,219.222207 L2.75380653,219.222207 L2.75380653,224.856869 L4.96527299,224.856869 L4.96527299,222.06073 C4.96527299,220.925669 5.19122597,220.062907 5.64036966,219.472443 C6.09061827,218.881979 6.74030214,218.587038 7.58831638,218.587038 C8.47997435,218.587038 9.16888234,218.91217 9.65227808,219.560113 C10.1373312,220.208055 10.3787528,221.132361 10.3787528,222.331286 L10.3787528,226.587038 L1.37875282,226.587038 Z" id="Fill-7" fill="#FFFFFF"></path>
                <path d="M5.9038894,210.975246 C5.59617348,210.575158 5.15365921,210.375114 4.57910885,210.375114 C4.00621584,210.375114 3.56370157,210.575158 3.25598565,210.975246 C2.94661238,211.377094 2.79303064,211.963734 2.79303064,212.737511 L2.79303064,214.812454 L6.36684441,214.812454 L6.36684441,212.737511 C6.36684441,211.963734 6.21271022,211.377094 5.9038894,210.975246 Z M1.7632596,210.490682 C2.02070236,209.877058 2.38974048,209.4054 2.86982151,209.078642 C3.34990254,208.750124 3.92003328,208.587038 4.57910885,208.587038 C5.23210743,208.587038 5.79837101,208.750124 6.28342411,209.078642 C6.76681985,209.4054 7.13917268,209.877058 7.39495809,210.490682 C7.65240085,211.10548 7.78112223,211.827047 7.78112223,212.655381 L7.78112223,214.812454 L10.3787528,214.812454 L10.3787528,216.587038 L1.37875282,216.587038 L1.37875282,212.655381 C1.37875282,211.827047 1.5074742,211.10548 1.7632596,210.490682 Z" id="Fill-8" fill="#FFFFFF"></path>
                <path d="M6.98338114,201.867156 L3.0504734,203.606852 L6.98338114,205.332962 L6.98338114,201.867156 Z M8.29600775,201.300466 L8.29600775,205.91154 L10.3787528,206.822432 L10.3787528,208.587038 L1.37875282,204.437355 L1.37875282,202.749742 L10.3787528,198.587038 L10.3787528,200.378818 L8.29600775,201.300466 Z" id="Fill-9" fill="#FFFFFF"></path>
                <path d="M6.58353057,190.584329 C6.99415572,190.253203 7.47668484,190.087038 8.02874094,190.087038 C8.60932092,190.087038 9.11443145,190.278489 9.54347828,190.661391 C9.97252511,191.044895 10.3029268,191.556635 10.5323064,192.196008 C10.764063,192.835984 10.8787528,193.533757 10.8787528,194.289928 C10.8787528,194.944353 10.7890214,195.599982 10.6083701,196.258621 C10.4300958,196.917261 10.1597131,197.527736 9.79959903,198.087038 L8.48631165,197.498838 C8.77214479,197.069579 8.99142218,196.593961 9.14354959,196.070783 C9.29508275,195.5464 9.37114645,195.028639 9.37114645,194.513889 C9.37114645,193.776382 9.22793276,193.162896 8.94209962,192.671626 C8.65686074,192.182763 8.26525151,191.935924 7.76727196,191.935924 C7.34357336,191.935924 7.01911412,192.113528 6.79805399,192.468134 C6.57699385,192.823943 6.46705803,193.314612 6.46705803,193.94074 L6.46705803,196.223703 L5.05571978,196.223703 L5.05571978,194.081017 C5.05571978,193.539175 4.94578396,193.112926 4.72294108,192.80528 C4.50188094,192.497032 4.20297436,192.342908 3.82503283,192.342908 C3.37281034,192.342908 3.02279846,192.550012 2.77321443,192.965424 C2.5248189,193.381439 2.40002689,193.911842 2.40002689,194.556635 C2.40002689,194.996129 2.46242289,195.44947 2.58721491,195.916659 C2.71260117,196.383245 2.89265822,196.821535 3.13273428,197.233335 L1.68039294,197.80829 C1.41416998,197.303173 1.21331427,196.768555 1.07960854,196.203835 C0.946497057,195.637911 0.878752821,195.074395 0.878752821,194.513889 C0.878752821,193.785412 0.990471385,193.115936 1.21153152,192.504256 C1.43259166,191.891373 1.74813718,191.404317 2.15876233,191.039476 C2.56879323,190.67584 3.05013385,190.492216 3.60397269,190.492216 C4.08293632,190.492216 4.50188094,190.624064 4.86140079,190.885954 C5.22092064,191.147845 5.49784006,191.507267 5.69215905,191.964822 C5.87637583,191.375418 6.17349967,190.916659 6.58353057,190.584329" id="Fill-10" fill="#FFFFFF"></path>
                <path d="M8.85750797,182.415812 C8.56628639,181.920001 8.1592923,181.5319 7.63533216,181.248661 C7.11316232,180.965422 6.5265418,180.824657 5.87845444,180.824657 C5.23096384,180.824657 4.64434332,180.965422 4.12217348,181.248661 C3.59821334,181.5319 3.19181602,181.920001 2.89999767,182.415812 C2.60817933,182.911623 2.46256854,183.467844 2.46256854,184.086753 C2.46256854,184.705092 2.60817933,185.262453 2.89999767,185.757694 C3.19181602,186.252935 3.59821334,186.642176 4.12217348,186.925415 C4.64434332,187.208654 5.23096384,187.349419 5.87845444,187.349419 C6.5265418,187.349419 7.11316232,187.208654 7.63533216,186.925415 C8.1592923,186.642176 8.56628639,186.252935 8.85750797,185.757694 C9.14932631,185.262453 9.29553387,184.705092 9.29553387,184.086753 C9.29553387,183.467844 9.14932631,182.911623 8.85750797,182.415812 Z M10.2324558,186.646165 C9.8021878,187.407549 9.20542227,188.003092 8.44036886,188.437354 C7.67770251,188.871616 6.82313427,189.087038 5.87845444,189.087038 C4.93437137,189.087038 4.07980313,188.871616 3.31534648,188.437354 C2.55208337,188.003092 1.95531784,187.407549 1.52504989,186.646165 C1.09418518,185.885921 0.878752821,185.032214 0.878752821,184.086753 C0.878752821,183.141292 1.09418518,182.288155 1.52504989,181.526771 C1.95531784,180.765957 2.55029307,180.169844 3.3081853,179.735582 C4.06786782,179.302459 4.92422635,179.087038 5.87845444,179.087038 C6.83148899,179.087038 7.68963782,179.302459 8.44753005,179.735582 C9.20721257,180.169844 9.8021878,180.765957 10.2324558,181.526771 C10.6633205,182.288155 10.8787528,183.141292 10.8787528,184.086753 C10.8787528,185.032214 10.6633205,185.885921 10.2324558,186.646165 Z" id="Fill-11" fill="#FFFFFF"></path>
                <path d="M7.75570942,171.343964 C6.88172992,171.343964 6.44363527,171.958773 6.44363527,173.191845 L6.44363527,175.870984 L9.09319638,175.870984 L9.09319638,173.191845 C9.09319638,171.958773 8.64736739,171.343964 7.75570942,171.343964 Z M5.22271575,175.870984 L5.22271575,173.540697 C5.22271575,172.977698 5.11609246,172.549404 4.90063607,172.254664 C4.68738949,171.958773 4.37028189,171.811979 3.94986571,171.811979 C3.52944952,171.811979 3.21013211,171.958773 2.99246591,172.254664 C2.77258991,172.549404 2.66430926,172.977698 2.66430926,173.540697 L2.66430926,175.870984 L5.22271575,175.870984 Z M6.48948881,170.05678 C6.86128919,169.744194 7.32755891,169.587038 7.8844308,169.587038 C8.6727802,169.587038 9.28600222,169.891564 9.72299197,170.498314 C10.1605342,171.10679 10.3787528,171.986405 10.3787528,173.137732 L10.3787528,177.587038 L1.37875282,177.587038 L1.37875282,173.393327 C1.37875282,172.340438 1.57984545,171.517239 1.98313561,170.928335 C2.38476841,170.338279 2.95600406,170.043539 3.69242295,170.043539 C4.16476964,170.043539 4.57137451,170.160975 4.91334247,170.398724 C5.25696779,170.635897 5.51772526,170.977266 5.69837715,171.423981 C5.85195889,170.825291 6.11603107,170.369365 6.48948881,170.05678 Z" id="Fill-12" fill="#FFFFFF"></path>
                <path d="M6.98338114,161.866775 L3.0504734,163.607136 L6.98338114,165.332778 L6.98338114,161.866775 Z M8.29600775,161.30062 L8.29600775,165.912521 L10.3787528,166.822332 L10.3787528,168.587038 L1.37875282,164.43712 L1.37875282,162.749977 L10.3787528,158.587038 L10.3787528,160.378919 L8.29600775,161.30062 Z" id="Fill-13" fill="#FFFFFF"></path>
                <polyline id="Fill-14" fill="#FFFFFF" points="2.79303064 151.587038 2.79303064 154.721537 10.3787528 154.721537 10.3787528 156.465894 2.79303064 156.465894 2.79303064 159.587038 1.37875282 159.587038 1.37875282 151.587038 2.79303064 151.587038"></polyline>
                <polyline id="Fill-15" fill="#FFFFFF" points="8.4771814 143.087038 9.87875282 143.087038 9.87875282 150.087038 0.878752821 150.087038 0.878752821 143.274354 2.28032424 143.274354 2.28032424 148.35365 4.61885472 148.35365 4.61885472 143.847185 5.99556579 143.847185 5.99556579 148.35365 8.4771814 148.35365 8.4771814 143.087038"></polyline>
                <path d="M1.87875282,133.087038 L10.7518465,133.087038 L10.7518465,134.777267 L3.27308833,134.777267 L3.27308833,138.419111 L5.49040859,138.497924 C6.73332798,138.541583 7.74040859,138.648179 8.51437374,138.815445 C9.28833888,138.983277 9.87439552,139.250334 10.276901,139.619451 C10.6777724,139.989703 10.8787528,140.50057 10.8787528,141.151487 C10.8787528,141.379988 10.8368138,141.692973 10.7518465,142.087038 L9.31883997,141.969669 C9.35315369,141.855135 9.37003822,141.723591 9.37003822,141.573335 C9.37003822,141.036953 9.06339334,140.655361 8.45064825,140.431396 C7.83790315,140.207431 6.87221687,140.069083 5.55413408,140.015785 L1.87875282,139.883107 L1.87875282,133.087038" id="Fill-16" fill="#FFFFFF"></path>
                <path d="M8.64294778,124.93398 C8.34296619,124.558445 7.90487154,124.371563 7.33032117,124.371563 C6.2430951,124.371563 5.69837715,125.094333 5.69837715,126.538696 L5.69837715,128.829632 L9.09319638,128.829632 L9.09319638,126.538696 C9.09319638,125.843633 8.94237691,125.309514 8.64294778,124.93398 Z M5.15200185,123.513788 C5.63705495,122.895365 6.354138,122.587038 7.30546082,122.587038 C8.30042737,122.587038 9.06004924,122.926021 9.58764116,123.602218 C10.1152331,124.279595 10.3787528,125.230516 10.3787528,126.456751 L10.3787528,130.587038 L1.37875282,130.587038 L1.37875282,128.829632 L4.42552711,128.829632 L4.42552711,126.168468 C4.42552711,125.016515 4.66694876,124.132211 5.15200185,123.513788 Z" id="Fill-17" fill="#FFFFFF"></path>
                <polyline id="Fill-18" fill="#FFFFFF" points="1.37875282 112.587038 10.3787528 112.587038 10.3787528 114.259323 6.52097859 114.259323 6.52097859 118.914753 10.3787528 118.914753 10.3787528 120.587038 1.37875282 120.587038 1.37875282 118.914753 5.09399437 118.914753 5.09399437 114.259323 1.37875282 114.259323 1.37875282 112.587038"></polyline>
                <path d="M6.98338114,104.866775 L3.0504734,106.607703 L6.98338114,108.333344 L6.98338114,104.866775 Z M8.29600775,104.30062 L8.29600775,108.912521 L10.3787528,109.822898 L10.3787528,111.587038 L1.37875282,107.43712 L1.37875282,105.749977 L10.3787528,101.587038 L10.3787528,103.378919 L8.29600775,104.30062 Z" id="Fill-19" fill="#FFFFFF"></path>
                <path d="M3.26869205,99.1961589 C3.58579966,99.5839485 4.04875466,99.7781376 4.65755707,99.7781376 C5.2475761,99.7781376 5.70445413,99.59101 6.0265338,99.2161663 C6.34806103,98.8436764 6.50827219,98.2999471 6.50827219,97.5879206 L6.50827219,95.3412122 L2.79303064,95.3412122 L2.79303064,97.5196602 C2.79303064,98.2499287 2.95158445,98.8083693 3.26869205,99.1961589 Z M1.37875282,93.5870379 L10.3787528,93.5870379 L10.3787528,95.3412122 L7.87227685,95.3412122 L7.87227685,97.9021538 L10.3787528,99.6828084 L10.3787528,101.558792 L7.60212769,99.5039191 C7.37009774,100.171223 7.00437433,100.684353 6.50164276,101.045662 C6.001121,101.406383 5.39397595,101.587038 4.68241742,101.587038 C3.99682415,101.587038 3.40514776,101.421683 2.90738826,101.093915 C2.41183857,100.764383 2.03175141,100.300094 1.76933658,99.6963428 C1.50913156,99.0943568 1.37875282,98.3852726 1.37875282,97.5726208 L1.37875282,93.5870379 Z" id="Fill-20" fill="#FFFFFF"></path>
                <polyline id="Fill-21" fill="#FFFFFF" points="1.37875282 78.5870379 10.3787528 78.5870379 10.3787528 80.2417891 2.79303064 80.2417891 2.79303064 84.9322867 10.3787528 84.9322867 10.3787528 86.5870379 1.37875282 86.5870379 1.37875282 78.5870379"></polyline>
                <path d="M1.87875282,68.0870379 L10.7518465,68.0870379 L10.7518465,69.7766996 L3.27308833,69.7766996 L3.27308833,73.4191112 L5.49040859,73.4979243 C6.73332798,73.5415834 7.74040859,73.6476125 8.51437374,73.8154446 C9.28833888,73.9827098 9.87439552,74.2503341 10.276901,74.6188844 C10.6777724,74.9897028 10.8787528,75.5000033 10.8787528,76.15092 C10.8787528,76.3799882 10.8368138,76.6924055 10.7518465,77.0870379 L9.31883997,76.9696688 C9.35315369,76.8551347 9.37003822,76.7230235 9.37003822,76.5727684 C9.37003822,76.0369529 9.06339334,75.6547945 8.45064825,75.4308293 C7.83790315,75.206864 6.87221687,75.0685159 5.55413408,75.0152178 L1.87875282,74.8836737 L1.87875282,68.0870379" id="Fill-22" fill="#FFFFFF"></path>
                <path d="M8.85750797,59.416382 C8.56628639,58.9205707 8.1592923,58.5319003 7.63533216,58.248661 C7.11316232,57.9654217 6.5265418,57.8246569 5.87845444,57.8246569 C5.23096384,57.8246569 4.64434332,57.9654217 4.12217348,58.248661 C3.59821334,58.5319003 3.19181602,58.9205707 2.89999767,59.416382 C2.60817933,59.9116233 2.46256854,60.4684136 2.46256854,61.0873229 C2.46256854,61.7056622 2.60817933,62.2624525 2.89999767,62.7582638 C3.19181602,63.2535051 3.59821334,63.6421755 4.12217348,63.9254148 C4.64434332,64.2086541 5.23096384,64.3494189 5.87845444,64.3494189 C6.5265418,64.3494189 7.11316232,64.2086541 7.63533216,63.9254148 C8.1592923,63.6421755 8.56628639,63.2535051 8.85750797,62.7582638 C9.14932631,62.2624525 9.29553387,61.7056622 9.29553387,61.0873229 C9.29553387,60.4684136 9.14932631,59.9116233 8.85750797,59.416382 Z M10.2324558,63.6467347 C9.8021878,64.4081184 9.20542227,65.0036618 8.44036886,65.4379241 C7.67770251,65.8716165 6.82313427,66.0870379 5.87845444,66.0870379 C4.93437137,66.0870379 4.07980313,65.8716165 3.31534648,65.4379241 C2.55208337,65.0036618 1.95531784,64.4081184 1.52504989,63.6467347 C1.09418518,62.8859209 0.878752821,62.0327836 0.878752821,61.0873229 C0.878752821,60.1418621 1.09418518,59.2881549 1.52504989,58.5273411 C1.95531784,57.7665273 2.55029307,57.170414 3.3081853,56.7361517 C4.06786782,56.3024593 4.92422635,56.0870379 5.87845444,56.0870379 C6.83148899,56.0870379 7.68963782,56.3024593 8.44753005,56.7361517 C9.20721257,57.170414 9.8021878,57.7665273 10.2324558,58.5273411 C10.6633205,59.2881549 10.8787528,60.1418621 10.8787528,61.0873229 C10.8787528,62.0327836 10.6633205,62.8859209 10.2324558,63.6467347 Z" id="Fill-23" fill="#FFFFFF"></path>
                <path d="M8.52252812,41.0870379 L11.8787528,41.0870379 L11.8787528,42.6470379 L9.94762934,42.6470379 L9.94762934,44.1037082 L8.52252812,44.1037082 L8.52252812,41.0870379 Z M0.878752821,42.399605 L9.94762934,42.399605 L9.94762934,54.0870379 L0.878752821,54.0870379 L0.878752821,52.4225911 L8.52252812,52.4225911 L8.52252812,49.0691217 L0.878752821,49.0691217 L0.878752821,47.4046749 L8.52252812,47.4046749 L8.52252812,44.0640519 L0.878752821,44.0640519 L0.878752821,42.399605 Z" id="Fill-24" fill="#FFFFFF"></path>
                <path d="M6.98338114,33.8667752 L3.0504734,35.6071364 L6.98338114,37.3327776 L6.98338114,33.8667752 Z M8.29600775,33.30062 L8.29600775,37.9119544 L10.3787528,38.822332 L10.3787528,40.5870379 L1.37875282,36.43712 L1.37875282,34.7494112 L10.3787528,30.5870379 L10.3787528,32.3789192 L8.29600775,33.30062 Z" id="Fill-25" fill="#FFFFFF"></path>
                <path d="M7.34469412,27.400425 C8.12571638,27.546225 8.68573663,27.7765226 9.02252812,28.0940794 L9.02252812,23.5306509 L2.80385404,23.5306509 L2.80385404,27.0535978 L4.41043298,27.1165569 C5.58447144,27.1601864 6.56311517,27.254625 7.34469412,27.400425 Z M9.02252812,20.5870379 L12.3787528,20.5870379 L12.3787528,22.1295353 L10.4476293,22.1295353 L10.4476293,29.0318383 L12.3787528,29.0318383 L12.3787528,30.5870379 L9.02252812,30.5743356 L9.02252812,30.1882971 C8.99580748,29.6238745 8.57495727,29.2267905 7.75886416,29.000911 C6.94277104,28.7733747 5.77541274,28.6336497 4.25400586,28.5817361 L1.37875282,28.4795657 L1.37875282,21.8848785 L9.02252812,21.8848785 L9.02252812,20.5870379 Z" id="Fill-26" fill="#FFFFFF"></path>
                <polyline id="Fill-27" fill="#FFFFFF" points="6.58506305 15.2040262 6.58506305 16.9090551 10.3787528 16.9090551 10.3787528 18.5870379 1.37875282 18.5870379 1.37875282 16.9090551 5.14592488 16.9090551 5.14592488 15.151061 1.37875282 12.5146333 1.37875282 10.7059279 5.73760126 13.8398904 10.3787528 10.5870379 10.3787528 12.5146333 6.58506305 15.2040262"></polyline>
                <path d="M6.98338114,3.86677521 L3.0504734,5.60713642 L6.98338114,7.33277759 L6.98338114,3.86677521 Z M8.29600775,3.30061997 L8.29600775,7.9119544 L10.3787528,8.82233203 L10.3787528,10.5870379 L1.37875282,6.43712 L1.37875282,4.74941123 L10.3787528,0.58703791 L10.3787528,2.37891924 L8.29600775,3.30061997 Z" id="Fill-28" fill="#FFFFFF"></path>
            </g>
        </g>
    </g>
</svg>